<mxfile host="65bd71144e" modified="2021-11-02T00:47:34.845Z" agent="5.0 (Windows NT 10.0; Win64; x64) AppleWebKit/537.36 (KHTML, like Gecko) Code/1.61.2 Chrome/91.0.4472.164 Electron/13.5.1 Safari/537.36" etag="q03zmEl5k0i2uE53yLAs" version="15.6.4" type="embed" pages="3">
    <diagram id="em1b6fMsbLagTfWiKfip" name="*商品情報検索">
        <mxGraphModel dx="1952" dy="860" grid="0" gridSize="10" guides="1" tooltips="1" connect="1" arrows="1" fold="1" page="0" pageScale="1" pageWidth="827" pageHeight="1169" math="0" shadow="0">
            <root>
                <mxCell id="d4U6wp0cc1fB_iKBPiok-0"/>
                <mxCell id="d4U6wp0cc1fB_iKBPiok-1" parent="d4U6wp0cc1fB_iKBPiok-0"/>
                <mxCell id="0" value="正規社員&lt;br&gt;非正規社員" style="shape=umlActor;verticalLabelPosition=bottom;verticalAlign=top;html=1;" vertex="1" parent="d4U6wp0cc1fB_iKBPiok-1">
                    <mxGeometry x="-70" y="280" width="30" height="60" as="geometry"/>
                </mxCell>
                <mxCell id="1" value="ログイン済&lt;br&gt;ホーム画面" style="shape=umlBoundary;whiteSpace=wrap;html=1;fillColor=#dae8fc;strokeColor=#6c8ebf;" vertex="1" parent="d4U6wp0cc1fB_iKBPiok-1">
                    <mxGeometry x="120" y="120" width="100" height="80" as="geometry"/>
                </mxCell>
                <mxCell id="2" value="商品情報&lt;br&gt;セット商品&lt;br&gt;一覧画面" style="shape=umlBoundary;whiteSpace=wrap;html=1;fillColor=#dae8fc;strokeColor=#6c8ebf;" vertex="1" parent="d4U6wp0cc1fB_iKBPiok-1">
                    <mxGeometry x="120" y="280" width="100" height="80" as="geometry"/>
                </mxCell>
                <mxCell id="3" value="商品情報&lt;br&gt;を取得する" style="ellipse;shape=umlControl;whiteSpace=wrap;html=1;fillColor=#f8cecc;strokeColor=#b85450;" vertex="1" parent="d4U6wp0cc1fB_iKBPiok-1">
                    <mxGeometry x="440" y="120" width="70" height="80" as="geometry"/>
                </mxCell>
                <mxCell id="4" value="商品情報" style="ellipse;shape=umlEntity;whiteSpace=wrap;html=1;fillColor=#d5e8d4;strokeColor=#82b366;" vertex="1" parent="d4U6wp0cc1fB_iKBPiok-1">
                    <mxGeometry x="680" y="120" width="80" height="80" as="geometry"/>
                </mxCell>
                <mxCell id="5" value="" style="endArrow=classic;html=1;rounded=0;" edge="1" parent="d4U6wp0cc1fB_iKBPiok-1">
                    <mxGeometry width="50" height="50" relative="1" as="geometry">
                        <mxPoint x="240" y="159.17000000000007" as="sourcePoint"/>
                        <mxPoint x="430" y="159.0000000000001" as="targetPoint"/>
                    </mxGeometry>
                </mxCell>
                <mxCell id="6" value="" style="endArrow=classic;html=1;rounded=0;" edge="1" parent="d4U6wp0cc1fB_iKBPiok-1">
                    <mxGeometry width="50" height="50" relative="1" as="geometry">
                        <mxPoint x="-29.999999999999545" y="319.9999999999999" as="sourcePoint"/>
                        <mxPoint x="110" y="159.99999999999977" as="targetPoint"/>
                    </mxGeometry>
                </mxCell>
                <mxCell id="7" value="「商品情報検索」&lt;br&gt;を押下" style="edgeLabel;html=1;align=center;verticalAlign=middle;resizable=0;points=[];" vertex="1" connectable="0" parent="6">
                    <mxGeometry x="0.2316" y="1" relative="1" as="geometry">
                        <mxPoint x="-16" y="19" as="offset"/>
                    </mxGeometry>
                </mxCell>
                <mxCell id="8" value="" style="endArrow=classic;html=1;rounded=0;" edge="1" parent="d4U6wp0cc1fB_iKBPiok-1">
                    <mxGeometry width="50" height="50" relative="1" as="geometry">
                        <mxPoint x="-29.999999999999545" y="319.9999999999999" as="sourcePoint"/>
                        <mxPoint x="110" y="320" as="targetPoint"/>
                    </mxGeometry>
                </mxCell>
                <mxCell id="9" value="「検索」を押下" style="edgeLabel;html=1;align=center;verticalAlign=middle;resizable=0;points=[];" vertex="1" connectable="0" parent="8">
                    <mxGeometry x="-0.2619" y="1" relative="1" as="geometry">
                        <mxPoint x="18" y="1" as="offset"/>
                    </mxGeometry>
                </mxCell>
                <mxCell id="10" value="" style="endArrow=classic;html=1;rounded=0;startArrow=classic;startFill=1;" edge="1" parent="d4U6wp0cc1fB_iKBPiok-1">
                    <mxGeometry width="50" height="50" relative="1" as="geometry">
                        <mxPoint x="520" y="159.99999999999977" as="sourcePoint"/>
                        <mxPoint x="660" y="160" as="targetPoint"/>
                    </mxGeometry>
                </mxCell>
                <mxCell id="11" value="" style="endArrow=classic;html=1;rounded=0;startArrow=none;startFill=0;endFill=1;" edge="1" parent="d4U6wp0cc1fB_iKBPiok-1">
                    <mxGeometry width="50" height="50" relative="1" as="geometry">
                        <mxPoint x="430" y="169.99999999999977" as="sourcePoint"/>
                        <mxPoint x="240" y="310" as="targetPoint"/>
                    </mxGeometry>
                </mxCell>
                <mxCell id="12" value="検索する" style="ellipse;shape=umlControl;whiteSpace=wrap;html=1;fillColor=#f8cecc;strokeColor=#b85450;" vertex="1" parent="d4U6wp0cc1fB_iKBPiok-1">
                    <mxGeometry x="440" y="280" width="70" height="80" as="geometry"/>
                </mxCell>
                <mxCell id="13" value="" style="endArrow=classic;html=1;rounded=0;startArrow=classic;startFill=1;strokeColor=default;labelBackgroundColor=default;fontColor=default;" edge="1" parent="d4U6wp0cc1fB_iKBPiok-1">
                    <mxGeometry width="50" height="50" relative="1" as="geometry">
                        <mxPoint x="240" y="319.34000000000003" as="sourcePoint"/>
                        <mxPoint x="430.00000000000045" y="319.1700000000002" as="targetPoint"/>
                    </mxGeometry>
                </mxCell>
                <mxCell id="14" value="条件が指定されていないとき、&lt;br&gt;条件に合う商品がないときは&lt;br&gt;エラーメッセージを表示" style="edgeLabel;html=1;align=center;verticalAlign=middle;resizable=0;points=[];fontColor=default;labelBackgroundColor=default;" vertex="1" connectable="0" parent="13">
                    <mxGeometry x="0.2912" y="-2" relative="1" as="geometry">
                        <mxPoint x="-23" y="9" as="offset"/>
                    </mxGeometry>
                </mxCell>
                <mxCell id="15" value="" style="endArrow=classic;html=1;rounded=0;startArrow=classic;startFill=1;strokeColor=default;labelBackgroundColor=default;fontColor=default;" edge="1" parent="d4U6wp0cc1fB_iKBPiok-1">
                    <mxGeometry width="50" height="50" relative="1" as="geometry">
                        <mxPoint x="520" y="310" as="sourcePoint"/>
                        <mxPoint x="660" y="170" as="targetPoint"/>
                    </mxGeometry>
                </mxCell>
                <mxCell id="16" value="商品情報検索" style="rounded=0;whiteSpace=wrap;html=1;fillColor=#ffe6cc;strokeColor=#d79b00;fontStyle=1;fontSize=18;" vertex="1" parent="d4U6wp0cc1fB_iKBPiok-1">
                    <mxGeometry x="-150" y="100" width="160" height="60" as="geometry"/>
                </mxCell>
                <mxCell id="17" value="" style="curved=1;endArrow=classic;html=1;rounded=0;labelBackgroundColor=default;fontColor=default;strokeColor=default;" edge="1" parent="d4U6wp0cc1fB_iKBPiok-1">
                    <mxGeometry width="50" height="50" relative="1" as="geometry">
                        <mxPoint x="520" y="300" as="sourcePoint"/>
                        <mxPoint x="520" y="170" as="targetPoint"/>
                        <Array as="points">
                            <mxPoint x="570" y="220"/>
                        </Array>
                    </mxGeometry>
                </mxCell>
            </root>
        </mxGraphModel>
    </diagram>
    <diagram id="5Pz3x9tau8wW2VPo6GqX" name="*ボトルネック判定">
        <mxGraphModel dx="1693" dy="717" grid="0" gridSize="10" guides="1" tooltips="1" connect="1" arrows="1" fold="1" page="0" pageScale="1" pageWidth="827" pageHeight="1169" math="0" shadow="0">
            <root>
                <mxCell id="mzyuVujSkgFNetJPbpG6-0"/>
                <mxCell id="mzyuVujSkgFNetJPbpG6-1" parent="mzyuVujSkgFNetJPbpG6-0"/>
                <mxCell id="MNrgjv-gWLWsw_UQSgPj-0" value="正規社員&lt;br&gt;非正規社員" style="shape=umlActor;verticalLabelPosition=bottom;verticalAlign=top;html=1;" vertex="1" parent="mzyuVujSkgFNetJPbpG6-1">
                    <mxGeometry x="-70" y="280" width="30" height="60" as="geometry"/>
                </mxCell>
                <mxCell id="MNrgjv-gWLWsw_UQSgPj-1" value="ログイン済&lt;br&gt;ホーム画面" style="shape=umlBoundary;whiteSpace=wrap;html=1;fillColor=#dae8fc;strokeColor=#6c8ebf;" vertex="1" parent="mzyuVujSkgFNetJPbpG6-1">
                    <mxGeometry x="120" y="120" width="100" height="80" as="geometry"/>
                </mxCell>
                <mxCell id="MNrgjv-gWLWsw_UQSgPj-2" value="商品情報&lt;br&gt;を取得する" style="ellipse;shape=umlControl;whiteSpace=wrap;html=1;fillColor=#f8cecc;strokeColor=#b85450;" vertex="1" parent="mzyuVujSkgFNetJPbpG6-1">
                    <mxGeometry x="440" y="120" width="70" height="80" as="geometry"/>
                </mxCell>
                <mxCell id="MNrgjv-gWLWsw_UQSgPj-3" value="商品情報" style="ellipse;shape=umlEntity;whiteSpace=wrap;html=1;fillColor=#d5e8d4;strokeColor=#82b366;" vertex="1" parent="mzyuVujSkgFNetJPbpG6-1">
                    <mxGeometry x="680" y="120" width="80" height="80" as="geometry"/>
                </mxCell>
                <mxCell id="MNrgjv-gWLWsw_UQSgPj-4" value="" style="endArrow=classic;html=1;rounded=0;" edge="1" parent="mzyuVujSkgFNetJPbpG6-1">
                    <mxGeometry width="50" height="50" relative="1" as="geometry">
                        <mxPoint x="240" y="159.17000000000007" as="sourcePoint"/>
                        <mxPoint x="430" y="159.0000000000001" as="targetPoint"/>
                    </mxGeometry>
                </mxCell>
                <mxCell id="MNrgjv-gWLWsw_UQSgPj-5" value="" style="endArrow=classic;html=1;rounded=0;strokeColor=default;labelBackgroundColor=default;fontColor=default;" edge="1" parent="mzyuVujSkgFNetJPbpG6-1">
                    <mxGeometry width="50" height="50" relative="1" as="geometry">
                        <mxPoint x="-30" y="319.9999999999998" as="sourcePoint"/>
                        <mxPoint x="110" y="159.9999999999999" as="targetPoint"/>
                    </mxGeometry>
                </mxCell>
                <mxCell id="MNrgjv-gWLWsw_UQSgPj-6" value="「商品情報検索」&lt;br&gt;を押下" style="edgeLabel;html=1;align=center;verticalAlign=middle;resizable=0;points=[];fontColor=default;labelBackgroundColor=default;" vertex="1" connectable="0" parent="MNrgjv-gWLWsw_UQSgPj-5">
                    <mxGeometry x="0.1398" relative="1" as="geometry">
                        <mxPoint x="-10" y="11" as="offset"/>
                    </mxGeometry>
                </mxCell>
                <mxCell id="MNrgjv-gWLWsw_UQSgPj-7" value="" style="endArrow=classic;html=1;rounded=0;strokeColor=default;labelBackgroundColor=default;fontColor=default;" edge="1" parent="mzyuVujSkgFNetJPbpG6-1">
                    <mxGeometry width="50" height="50" relative="1" as="geometry">
                        <mxPoint x="-30" y="319.9999999999998" as="sourcePoint"/>
                        <mxPoint x="110" y="320" as="targetPoint"/>
                    </mxGeometry>
                </mxCell>
                <mxCell id="MNrgjv-gWLWsw_UQSgPj-8" value="「ボトルネック」を選択&lt;br&gt;条件を指定し&lt;br&gt;「検索」を押下" style="edgeLabel;html=1;align=center;verticalAlign=middle;resizable=0;points=[];fontColor=default;labelBackgroundColor=default;" vertex="1" connectable="0" parent="MNrgjv-gWLWsw_UQSgPj-7">
                    <mxGeometry x="0.2429" y="-2" relative="1" as="geometry">
                        <mxPoint x="-17" y="28" as="offset"/>
                    </mxGeometry>
                </mxCell>
                <mxCell id="MNrgjv-gWLWsw_UQSgPj-9" value="" style="endArrow=classic;html=1;rounded=0;startArrow=classic;startFill=1;" edge="1" parent="mzyuVujSkgFNetJPbpG6-1">
                    <mxGeometry width="50" height="50" relative="1" as="geometry">
                        <mxPoint x="520" y="159.9999999999999" as="sourcePoint"/>
                        <mxPoint x="660" y="159.9999999999999" as="targetPoint"/>
                    </mxGeometry>
                </mxCell>
                <mxCell id="MNrgjv-gWLWsw_UQSgPj-10" value="検索画面" style="shape=umlBoundary;whiteSpace=wrap;html=1;fillColor=#dae8fc;strokeColor=#6c8ebf;" vertex="1" parent="mzyuVujSkgFNetJPbpG6-1">
                    <mxGeometry x="120" y="280" width="100" height="80" as="geometry"/>
                </mxCell>
                <mxCell id="MNrgjv-gWLWsw_UQSgPj-11" value="検索する" style="ellipse;shape=umlControl;whiteSpace=wrap;html=1;fillColor=#f8cecc;strokeColor=#b85450;" vertex="1" parent="mzyuVujSkgFNetJPbpG6-1">
                    <mxGeometry x="440" y="280" width="70" height="80" as="geometry"/>
                </mxCell>
                <mxCell id="MNrgjv-gWLWsw_UQSgPj-12" value="" style="endArrow=classic;html=1;rounded=0;" edge="1" parent="mzyuVujSkgFNetJPbpG6-1">
                    <mxGeometry width="50" height="50" relative="1" as="geometry">
                        <mxPoint x="430" y="169.0000000000001" as="sourcePoint"/>
                        <mxPoint x="240" y="310" as="targetPoint"/>
                    </mxGeometry>
                </mxCell>
                <mxCell id="MNrgjv-gWLWsw_UQSgPj-13" value="" style="endArrow=classic;html=1;rounded=0;startArrow=classic;startFill=1;strokeColor=default;labelBackgroundColor=default;fontColor=default;" edge="1" parent="mzyuVujSkgFNetJPbpG6-1">
                    <mxGeometry width="50" height="50" relative="1" as="geometry">
                        <mxPoint x="240" y="319.5799999999999" as="sourcePoint"/>
                        <mxPoint x="430" y="319.40999999999985" as="targetPoint"/>
                    </mxGeometry>
                </mxCell>
                <mxCell id="MNrgjv-gWLWsw_UQSgPj-14" value="条件が指定されていないときは&lt;br&gt;エラーメッセージを表示" style="edgeLabel;html=1;align=center;verticalAlign=middle;resizable=0;points=[];fontColor=default;labelBackgroundColor=default;" vertex="1" connectable="0" parent="MNrgjv-gWLWsw_UQSgPj-13">
                    <mxGeometry x="0.2316" y="-1" relative="1" as="geometry">
                        <mxPoint x="-17" as="offset"/>
                    </mxGeometry>
                </mxCell>
                <mxCell id="MNrgjv-gWLWsw_UQSgPj-15" value="" style="endArrow=classic;html=1;rounded=0;startArrow=classic;startFill=1;strokeColor=default;labelBackgroundColor=default;fontColor=default;" edge="1" parent="mzyuVujSkgFNetJPbpG6-1">
                    <mxGeometry width="50" height="50" relative="1" as="geometry">
                        <mxPoint x="520" y="320" as="sourcePoint"/>
                        <mxPoint x="660" y="169.9999999999999" as="targetPoint"/>
                    </mxGeometry>
                </mxCell>
                <mxCell id="MNrgjv-gWLWsw_UQSgPj-16" value="ボトルネック判定" style="rounded=0;whiteSpace=wrap;html=1;fillColor=#ffe6cc;strokeColor=#d79b00;fontStyle=1;fontSize=18;" vertex="1" parent="mzyuVujSkgFNetJPbpG6-1">
                    <mxGeometry x="-150" y="100" width="160" height="60" as="geometry"/>
                </mxCell>
                <mxCell id="MNrgjv-gWLWsw_UQSgPj-17" value="" style="curved=1;endArrow=classic;html=1;rounded=0;labelBackgroundColor=default;fontColor=default;strokeColor=default;" edge="1" parent="mzyuVujSkgFNetJPbpG6-1">
                    <mxGeometry width="50" height="50" relative="1" as="geometry">
                        <mxPoint x="520" y="299.9999999999999" as="sourcePoint"/>
                        <mxPoint x="520" y="169.9999999999999" as="targetPoint"/>
                        <Array as="points">
                            <mxPoint x="570" y="220"/>
                        </Array>
                    </mxGeometry>
                </mxCell>
            </root>
        </mxGraphModel>
    </diagram>
    <diagram id="ESTtlpsgeIXyWqRHIMmx" name="*ベンチマーク検索">
        <mxGraphModel dx="1509" dy="614" grid="0" gridSize="10" guides="1" tooltips="1" connect="1" arrows="1" fold="1" page="0" pageScale="1" pageWidth="827" pageHeight="1169" math="0" shadow="0">
            <root>
                <mxCell id="nSvWwGeYQzesH8xxH-ef-0"/>
                <mxCell id="nSvWwGeYQzesH8xxH-ef-1" parent="nSvWwGeYQzesH8xxH-ef-0"/>
                <mxCell id="PKaqCkKwlo9RgHHq3Zaf-0" value="正規社員&lt;br&gt;非正規社員" style="shape=umlActor;verticalLabelPosition=bottom;verticalAlign=top;html=1;" vertex="1" parent="nSvWwGeYQzesH8xxH-ef-1">
                    <mxGeometry x="-70" y="280" width="30" height="60" as="geometry"/>
                </mxCell>
                <mxCell id="PKaqCkKwlo9RgHHq3Zaf-1" value="ログイン済&lt;br&gt;ホーム画面" style="shape=umlBoundary;whiteSpace=wrap;html=1;fillColor=#dae8fc;strokeColor=#6c8ebf;" vertex="1" parent="nSvWwGeYQzesH8xxH-ef-1">
                    <mxGeometry x="120" y="120" width="100" height="80" as="geometry"/>
                </mxCell>
                <mxCell id="PKaqCkKwlo9RgHHq3Zaf-2" value="検索画面" style="shape=umlBoundary;whiteSpace=wrap;html=1;fillColor=#dae8fc;strokeColor=#6c8ebf;" vertex="1" parent="nSvWwGeYQzesH8xxH-ef-1">
                    <mxGeometry x="120" y="280" width="100" height="80" as="geometry"/>
                </mxCell>
                <mxCell id="PKaqCkKwlo9RgHHq3Zaf-3" value="商品情報&lt;br&gt;を取得する" style="ellipse;shape=umlControl;whiteSpace=wrap;html=1;fillColor=#f8cecc;strokeColor=#b85450;" vertex="1" parent="nSvWwGeYQzesH8xxH-ef-1">
                    <mxGeometry x="440" y="120" width="70" height="80" as="geometry"/>
                </mxCell>
                <mxCell id="PKaqCkKwlo9RgHHq3Zaf-4" value="商品情報" style="ellipse;shape=umlEntity;whiteSpace=wrap;html=1;fillColor=#d5e8d4;strokeColor=#82b366;" vertex="1" parent="nSvWwGeYQzesH8xxH-ef-1">
                    <mxGeometry x="680" y="120" width="80" height="80" as="geometry"/>
                </mxCell>
                <mxCell id="PKaqCkKwlo9RgHHq3Zaf-5" value="" style="endArrow=classic;html=1;rounded=0;" edge="1" parent="nSvWwGeYQzesH8xxH-ef-1">
                    <mxGeometry width="50" height="50" relative="1" as="geometry">
                        <mxPoint x="240" y="159.17000000000007" as="sourcePoint"/>
                        <mxPoint x="430" y="159.0000000000001" as="targetPoint"/>
                    </mxGeometry>
                </mxCell>
                <mxCell id="PKaqCkKwlo9RgHHq3Zaf-6" value="" style="endArrow=classic;html=1;rounded=0;" edge="1" parent="nSvWwGeYQzesH8xxH-ef-1">
                    <mxGeometry width="50" height="50" relative="1" as="geometry">
                        <mxPoint x="-30" y="319.99999999999955" as="sourcePoint"/>
                        <mxPoint x="110" y="159.9999999999999" as="targetPoint"/>
                    </mxGeometry>
                </mxCell>
                <mxCell id="PKaqCkKwlo9RgHHq3Zaf-7" value="「商品情報検索」&lt;br&gt;を押下" style="edgeLabel;html=1;align=center;verticalAlign=middle;resizable=0;points=[];fontColor=default;" vertex="1" connectable="0" parent="PKaqCkKwlo9RgHHq3Zaf-6">
                    <mxGeometry x="0.1796" y="-1" relative="1" as="geometry">
                        <mxPoint y="-1" as="offset"/>
                    </mxGeometry>
                </mxCell>
                <mxCell id="PKaqCkKwlo9RgHHq3Zaf-8" value="" style="endArrow=classic;html=1;rounded=0;" edge="1" parent="nSvWwGeYQzesH8xxH-ef-1">
                    <mxGeometry width="50" height="50" relative="1" as="geometry">
                        <mxPoint x="-30" y="319.99999999999955" as="sourcePoint"/>
                        <mxPoint x="110" y="320" as="targetPoint"/>
                    </mxGeometry>
                </mxCell>
                <mxCell id="PKaqCkKwlo9RgHHq3Zaf-9" value="「ベンチマーク」を押下&lt;br&gt;条件を指定&lt;br&gt;「検索」を押下" style="edgeLabel;html=1;align=center;verticalAlign=middle;resizable=0;points=[];fontColor=default;" vertex="1" connectable="0" parent="PKaqCkKwlo9RgHHq3Zaf-8">
                    <mxGeometry x="0.2" relative="1" as="geometry">
                        <mxPoint x="-17" y="25" as="offset"/>
                    </mxGeometry>
                </mxCell>
                <mxCell id="PKaqCkKwlo9RgHHq3Zaf-10" value="" style="endArrow=classic;html=1;rounded=0;startArrow=classic;startFill=1;" edge="1" parent="nSvWwGeYQzesH8xxH-ef-1">
                    <mxGeometry width="50" height="50" relative="1" as="geometry">
                        <mxPoint x="520" y="159.9999999999999" as="sourcePoint"/>
                        <mxPoint x="659.9999999999995" y="159.9999999999999" as="targetPoint"/>
                    </mxGeometry>
                </mxCell>
                <mxCell id="PKaqCkKwlo9RgHHq3Zaf-11" value="" style="endArrow=classic;html=1;rounded=0;startArrow=none;startFill=0;endFill=1;" edge="1" parent="nSvWwGeYQzesH8xxH-ef-1">
                    <mxGeometry width="50" height="50" relative="1" as="geometry">
                        <mxPoint x="430" y="169.9999999999999" as="sourcePoint"/>
                        <mxPoint x="240" y="310" as="targetPoint"/>
                    </mxGeometry>
                </mxCell>
                <mxCell id="PKaqCkKwlo9RgHHq3Zaf-12" value="" style="endArrow=classic;html=1;rounded=0;startArrow=classic;startFill=1;" edge="1" parent="nSvWwGeYQzesH8xxH-ef-1">
                    <mxGeometry width="50" height="50" relative="1" as="geometry">
                        <mxPoint x="240" y="319.34000000000015" as="sourcePoint"/>
                        <mxPoint x="430" y="319.16999999999985" as="targetPoint"/>
                    </mxGeometry>
                </mxCell>
                <mxCell id="PKaqCkKwlo9RgHHq3Zaf-13" value="条件が指定されていないときは&lt;br&gt;エラーメッセージを表示" style="edgeLabel;html=1;align=center;verticalAlign=middle;resizable=0;points=[];fontColor=default;" vertex="1" connectable="0" parent="PKaqCkKwlo9RgHHq3Zaf-12">
                    <mxGeometry x="-0.2386" y="2" relative="1" as="geometry">
                        <mxPoint x="22" y="5" as="offset"/>
                    </mxGeometry>
                </mxCell>
                <mxCell id="PKaqCkKwlo9RgHHq3Zaf-14" value="検索する" style="ellipse;shape=umlControl;whiteSpace=wrap;html=1;fillColor=#f8cecc;strokeColor=#b85450;" vertex="1" parent="nSvWwGeYQzesH8xxH-ef-1">
                    <mxGeometry x="440" y="280" width="70" height="80" as="geometry"/>
                </mxCell>
                <mxCell id="PKaqCkKwlo9RgHHq3Zaf-15" value="" style="endArrow=classic;html=1;rounded=0;startArrow=classic;startFill=1;endFill=1;strokeColor=default;labelBackgroundColor=default;fontColor=default;" edge="1" parent="nSvWwGeYQzesH8xxH-ef-1">
                    <mxGeometry width="50" height="50" relative="1" as="geometry">
                        <mxPoint x="520" y="320" as="sourcePoint"/>
                        <mxPoint x="660" y="169.9999999999999" as="targetPoint"/>
                    </mxGeometry>
                </mxCell>
                <mxCell id="PKaqCkKwlo9RgHHq3Zaf-16" value="ベンチマーク検索" style="rounded=0;whiteSpace=wrap;html=1;fillColor=#ffe6cc;strokeColor=#d79b00;fontStyle=1;fontSize=18;" vertex="1" parent="nSvWwGeYQzesH8xxH-ef-1">
                    <mxGeometry x="-150" y="100" width="160" height="60" as="geometry"/>
                </mxCell>
                <mxCell id="PKaqCkKwlo9RgHHq3Zaf-17" value="" style="curved=1;endArrow=classic;html=1;rounded=0;labelBackgroundColor=default;fontColor=default;strokeColor=default;" edge="1" parent="nSvWwGeYQzesH8xxH-ef-1">
                    <mxGeometry width="50" height="50" relative="1" as="geometry">
                        <mxPoint x="520" y="299.9999999999999" as="sourcePoint"/>
                        <mxPoint x="520" y="169.9999999999999" as="targetPoint"/>
                        <Array as="points">
                            <mxPoint x="570" y="220"/>
                        </Array>
                    </mxGeometry>
                </mxCell>
            </root>
        </mxGraphModel>
    </diagram>
</mxfile>